<svg width="16" height="23" viewBox="0 0 16 23" fill="none" xmlns="http://www.w3.org/2000/svg">
<path d="M16 23H0V0H16V23Z" stroke="#E5E7EB"/>
<g clip-path="url(#clip0_188_1895)">
<path d="M15.5656 3.17512C15.8812 3.39387 16.0468 3.77199 15.9875 4.15012L13.9875 17.1501C13.9406 17.4532 13.7562 17.7189 13.4875 17.8689C13.2187 18.0189 12.8968 18.0376 12.6125 17.9189L8.87496 16.3657L6.73433 18.6814C6.45621 18.9845 6.01871 19.0845 5.63433 18.9345C5.24996 18.7845 4.99996 18.4126 4.99996 18.0001V15.3876C4.99996 15.2626 5.04683 15.1439 5.13121 15.0532L10.3687 9.33762C10.55 9.14074 10.5437 8.83762 10.3562 8.65012C10.1687 8.46262 9.86558 8.45012 9.66871 8.62824L3.31246 14.2751L0.553084 12.8939C0.221834 12.7282 0.00933428 12.397 -4.07251e-05 12.0282C-0.00941573 11.6595 0.184334 11.3157 0.503084 11.1314L14.5031 3.13137C14.8375 2.94074 15.25 2.95949 15.5656 3.17512Z" fill="white"/>
</g>
<defs>
<clipPath id="clip0_188_1895">
<path d="M0 3H16V19H0V3Z" fill="white"/>
</clipPath>
</defs>
</svg>
